<?xml version="1.0" encoding="UTF-8"?>
<!DOCTYPE svg PUBLIC "-//W3C//DTD SVG 1.1//EN" "http://www.w3.org/Graphics/SVG/1.1/DTD/svg11.dtd">
<!-- Creator: CorelDRAW 2021 (64-Bit) -->
<svg xmlns="http://www.w3.org/2000/svg" xml:space="preserve" width="1.12328in" height="0.469744in" version="1.1" style="shape-rendering:geometricPrecision; text-rendering:geometricPrecision; image-rendering:optimizeQuality; fill-rule:evenodd; clip-rule:evenodd"
viewBox="0 0 101.54 42.46"
 xmlns:xlink="http://www.w3.org/1999/xlink"
 xmlns:xodm="http://www.corel.com/coreldraw/odm/2003">
 <defs>
  <style type="text/css">
   <![CDATA[
    .fil0 {fill:#E6E7E8}
    .fil1 {fill:#201E1E;fill-rule:nonzero}
   ]]>
  </style>
 </defs>
 <g id="Layer_x0020_1">
  <metadata id="CorelCorpID_0Corel-Layer"/>
  <g id="_2709157407872">
   <path class="fil0" d="M94.81 0l-88.07 0c-3.71,0 -6.73,3.1 -6.73,6.9l0 28.66c0,3.8 3.03,6.9 6.73,6.9l88.07 0c3.71,0 6.73,-3.1 6.73,-6.9l0 -28.66c0,-3.8 -3.03,-6.9 -6.73,-6.9z"/>
   <path class="fil1" d="M13.48 23.53l3.67 0 -1.85 -9.81 -1.82 9.81zm-6.18 9.4l5.21 -23.39 5.78 0 5.25 23.39 -4.64 0 -1.14 -5.88 -4.95 0 -1.11 5.88 -4.4 0z"/>
   <polygon id="_1" class="fil1" points="25.81,32.93 25.81,9.54 30.12,9.54 30.12,28.95 37.9,28.95 37.9,32.93 "/>
   <polygon id="_2" class="fil1" points="40.82,32.93 40.82,9.54 47.3,9.54 50.48,24.68 53.64,9.54 60.14,9.54 60.14,32.93 56.01,32.93 56.11,12.18 51.8,32.93 49.15,32.93 44.84,12.18 44.94,32.93 "/>
   <path id="_3" class="fil1" d="M68.56 23.53l3.67 0 -1.85 -9.81 -1.82 9.81zm-6.18 9.4l5.21 -23.39 5.78 0 5.26 23.39 -4.64 0 -1.14 -5.88 -4.95 0 -1.11 5.88 -4.4 0z"/>
   <path id="_4" class="fil1" d="M80.45 24.72l4.31 0 0 1.5c0,1.44 0.18,2.42 0.53,2.94 0.35,0.52 0.97,0.78 1.84,0.78 0.91,0 1.6,-0.23 2.08,-0.7 0.48,-0.47 0.71,-1.16 0.71,-2.06 0,-0.7 -0.16,-1.3 -0.5,-1.8 -0.33,-0.5 -1.05,-1.15 -2.15,-1.93l-2.2 -1.58c-1.91,-1.34 -3.12,-2.44 -3.64,-3.31 -0.52,-0.87 -0.77,-1.96 -0.77,-3.28 0,-1.96 0.57,-3.5 1.73,-4.62 1.15,-1.12 2.74,-1.67 4.76,-1.67 2.15,0 3.79,0.59 4.93,1.78 1.14,1.18 1.71,2.88 1.71,5.1 0,0.22 0,0.39 -0.01,0.51 -0,0.12 -0.01,0.23 -0.03,0.32l-4.09 0 0 -0.62c0,-1.27 -0.2,-2.18 -0.61,-2.73 -0.41,-0.54 -1.09,-0.82 -2.03,-0.82 -0.69,0 -1.23,0.21 -1.63,0.62 -0.39,0.41 -0.59,0.98 -0.59,1.71 0,0.99 0.89,2.07 2.66,3.27l0.05 0.03 2.37 1.63c1.69,1.14 2.84,2.2 3.44,3.21 0.6,1.01 0.9,2.29 0.9,3.85 0,2.13 -0.6,3.77 -1.8,4.92 -1.2,1.16 -2.92,1.73 -5.15,1.73 -2.32,0 -4.05,-0.61 -5.19,-1.82 -1.13,-1.21 -1.7,-3.07 -1.7,-5.56 0,-0.26 0.02,-0.69 0.06,-1.3l0 -0.09z"/>
   <path class="fil1" d="M93.03 4.34l-84.52 0c-1.04,0 -1.98,0.42 -2.66,1.09 -0.68,0.66 -1.09,1.58 -1.09,2.59l0 26.43c0,1.01 0.42,1.93 1.09,2.59 0.68,0.67 1.62,1.09 2.66,1.09l84.52 0c1.04,0 1.98,-0.42 2.66,-1.09 0.68,-0.66 1.09,-1.58 1.09,-2.59l0 -26.43c0,-1.01 -0.42,-1.93 -1.09,-2.59 -0.68,-0.67 -1.62,-1.09 -2.66,-1.09zm-84.52 -2.45l84.52 0c1.7,0 3.25,0.69 4.37,1.79 1.13,1.11 1.83,2.65 1.83,4.33l0 26.43c0,1.69 -0.7,3.22 -1.83,4.33 -1.12,1.11 -2.67,1.79 -4.37,1.79l-84.52 0c-1.7,0 -3.25,-0.69 -4.37,-1.79 -1.13,-1.11 -1.83,-2.65 -1.83,-4.33l0 -26.43c0,-1.69 0.7,-3.22 1.83,-4.33 1.12,-1.11 2.67,-1.79 4.37,-1.79z"/>
  </g>
 </g>
</svg>
