<?xml version="1.0" encoding="UTF-8"?>
<!DOCTYPE svg PUBLIC "-//W3C//DTD SVG 1.1//EN" "http://www.w3.org/Graphics/SVG/1.1/DTD/svg11.dtd">
<svg xmlns="http://www.w3.org/2000/svg" xml:space="preserve" width="6.49in" height="2.98837in" version="1.1" style="shape-rendering:geometricPrecision; text-rendering:geometricPrecision; image-rendering:optimizeQuality; fill-rule:evenodd; clip-rule:evenodd" viewBox="0 0 6484.39 2985.79" xmlns:xlink="http://www.w3.org/1999/xlink">
 <defs>
  <style type="text/css"><![CDATA[
    .fil0 {fill:#643E86}
    .fil3 {fill:#FEFEFE;fill-rule:nonzero}
    .fil2 {fill:url(#id0)}
    .fil1 {fill:url(#id1)}
  ]]></style>
  <linearGradient id="id0" gradientUnits="userSpaceOnUse" x1="3383.5" y1="1381.59" x2="3190.07" y2="2436.64">
   <stop offset="0" style="stop-opacity:1; stop-color:#A45E4D"/>
   <stop offset="0.341176" style="stop-opacity:1; stop-color:#FFD24C"/>
   <stop offset="0.560784" style="stop-opacity:1; stop-color:#DCB15A"/>
   <stop offset="1" style="stop-opacity:1; stop-color:#A45E4D"/>
  </linearGradient>
  <linearGradient id="id1" gradientUnits="userSpaceOnUse" xlink:href="#id0" x1="3383.5" y1="763.38" x2="3190.07" y2="-291.67"/>
 </defs>
 <g id="Layer_x0020_1">
  <g id="_2417464864496">
   <path class="fil0" d="M-0 922.42c340.54,617.04 1455.74,531.7 3071.16,-10.44 1067.59,-367.13 1885.68,-530.14 2507.97,-535.48 681.85,32.19 1020.74,347.8 869.83,783.55 -121.33,350.28 -89.63,550.38 -17.25,806.01 -461.3,-593.28 -1398.26,-438.98 -2928.99,13.37 -932.47,275.55 -2060.74,779.41 -2884.14,550.19 -478,-133.05 -551.12,-434.56 -500.94,-793.18 17.12,-122.28 34.57,-227.42 17.55,-328.15 -26.41,-156.25 -115.07,-294.05 -135.19,-485.89z"/>
   <path class="fil1" d="M6416.86 564.01c-200.86,-277.41 -624.71,-454.34 -1626.05,-371.1 -306.49,-257.68 -1071.28,-175.27 -2489.89,269.9 -289.21,-138.14 -874.83,-227.85 -1209.74,-234.17 407.43,-199.91 797.07,-188.42 1169.44,-15.49 -246.73,-272.3 -901.61,-300.5 -1246.61,13.5 -497.88,26.01 -879.25,142.25 -959.48,440.95 -91.07,487.76 549.44,645.21 950.89,643.38 491.15,20.05 1188.64,-158.34 2050.11,-433.04 -1218.37,354.23 -2297.65,551.06 -2771.83,192.1 512.33,213.78 1640.77,78.28 3137.43,-364.35 1072.45,-317.18 2380.7,-666.74 2995.73,-141.68zm-1658.4 -357.33c-464.12,-272.43 -1631.42,183.5 -2162.85,343.69l239.56 104.16c650.48,-193.71 1388.97,-396.28 1923.3,-447.85zm-2503.37 282c-298.57,-126.13 -691.91,-208.29 -1209.78,-217.47 -168.07,114.99 -22.75,366.18 369.13,350.88 274.81,-10.72 528.22,-43.86 840.65,-133.42zm488.74 199.94c-71.49,-39.99 -142.97,-79.97 -214.46,-119.95 -1127.76,351.36 -1814.79,89.97 -1558.06,-288.79 -465.61,-10.29 -909,214.59 -866.62,475.45 67.26,413.91 935.63,308.6 1427.63,235.26 174.65,-36.65 347.69,-76.6 519.46,-118.95 232.54,-57.3 462.85,-119.04 692.04,-183.02z"/>
   <path class="fil2" d="M45.77 2421.77c200.86,277.41 624.72,454.34 1626.05,371.1 306.49,257.67 1071.28,175.27 2489.89,-269.9 289.21,138.14 874.83,227.85 1209.75,234.17 -407.43,199.91 -797.07,188.42 -1169.44,15.49 246.72,272.3 901.61,300.5 1246.61,-13.5 497.88,-26.01 879.25,-142.25 959.48,-440.95 91.07,-487.76 -549.44,-645.22 -950.9,-643.38 -491.15,-20.05 -1188.64,158.34 -2050.11,433.05 1218.37,-354.23 2297.65,-551.07 2771.83,-192.11 -512.33,-213.78 -1640.76,-78.28 -3137.43,364.35 -1072.45,317.18 -2380.7,666.74 -2995.73,141.68zm1658.4 357.33c464.12,272.43 1631.42,-183.5 2162.86,-343.69l-239.56 -104.16c-650.47,193.71 -1388.97,396.28 -1923.3,447.85zm2503.38 -282c298.57,126.13 691.91,208.3 1209.78,217.47 168.06,-114.99 22.75,-366.19 -369.14,-350.89 -274.81,10.72 -528.22,43.86 -840.65,133.42zm-488.75 -199.93c71.49,39.98 142.97,79.97 214.46,119.95 1127.76,-351.36 1814.79,-89.97 1558.06,288.79 465.62,10.29 909,-214.59 866.62,-475.45 -67.26,-413.9 -935.63,-308.59 -1427.63,-235.26 -174.65,36.65 -347.69,76.6 -519.46,118.95 -232.54,57.31 -462.85,119.04 -692.05,183.03z"/>
   <path class="fil3" d="M621.12 1617.17l211.93 24.79c42.07,4.92 73.07,10.3 93.27,16.17 20.31,5.99 37.83,15.43 52.84,28.31 14.98,13.02 26.83,29.28 35.54,48.93 8.71,19.64 11.71,41 9.03,63.82 -2.88,24.67 -12.21,46.72 -27.94,65.75 -15.75,19.17 -35.68,32.47 -59.71,40.16 31.08,13.27 53.87,32.2 68.61,56.92 14.62,24.73 20.14,52.37 16.55,83.1 -2.82,24.16 -11.12,46.95 -25.02,68.47 -13.89,21.5 -31.32,37.97 -52.41,49.39 -20.96,11.3 -45.87,16.89 -74.74,16.77 -17.98,-0.23 -61.18,-4.02 -129.45,-11.52l-180.47 -21.11 61.98 -529.94zm97.02 100.63l-14.28 122.12 70.06 8.2c41.58,4.86 67.56,7.27 77.81,7.22 18.5,0.04 33.67,-4.56 45.38,-13.82 11.71,-9.26 18.5,-22.35 20.49,-39.37 1.92,-16.41 -1.11,-30.14 -8.91,-41.44 -7.81,-11.29 -20.54,-19.02 -38.06,-23.21 -10.46,-2.47 -40.86,-6.65 -91.06,-12.52l-61.43 -7.19zm-24.59 210.2l-16.62 142.11 99.18 11.6c38.47,4.5 63.17,6.26 73.77,5.39 16.26,-1.11 30.03,-6.62 41.33,-16.67 11.32,-10.18 18.13,-24.51 20.34,-43.39 1.88,-16.04 -0.38,-29.93 -6.85,-41.94 -6.36,-11.99 -16.62,-21.45 -30.6,-28.21 -13.96,-6.75 -45.36,-13.06 -94.09,-18.76l-86.47 -10.12zm430.07 256.82l-52.41 -530.98 393.03 -38.79 8.86 89.73 -285.52 28.19 11.65 117.91 265.48 -26.2 8.85 89.73 -265.48 26.21 14.21 143.86 295.87 -29.21 8.86 89.74 -403.41 39.82zm992.3 -159.23l-113.84 24.14 -70.27 -109.28 -209.34 44.39 -18.18 128.03 -111.77 23.7 91.98 -564.92 111.65 -23.67 319.78 477.61zm-237.08 -166.06l-113.49 -177.8 -29.51 208.12 143 -30.32zm172.34 -371.58l104.1 -28.96 77.49 278.56c12.32,44.27 21.58,72.51 27.73,84.85 10.29,19.83 25.42,33.92 45.45,42.02 20.2,8.18 44.58,8.22 73.3,0.23 29.08,-8.1 49.43,-20.19 60.9,-36.4 11.47,-16.21 16.23,-33.4 14.33,-51.82 -1.91,-18.42 -8.45,-47.92 -19.76,-88.61l-79.14 -284.55 104.09 -28.96 75.19 270.31c17.18,61.74 26.58,106.18 28.05,133.23 1.46,27.06 -2.84,51.45 -13.02,73.24 -10.07,21.75 -26.3,41.22 -48.54,58.61 -22.34,17.44 -53.67,31.82 -94.24,43.1 -48.93,13.62 -87.59,18.31 -115.99,13.96 -28.41,-4.34 -52.49,-13.5 -72.28,-27.59 -19.77,-14.1 -34.6,-30.34 -44.83,-49.02 -15,-27.55 -30.47,-70.17 -46.48,-127.72l-76.36 -274.49zm798.6 326.27l-134.39 -422.53 -150.55 47.89 -27.33 -85.93 403.35 -128.29 27.33 85.92 -149.83 47.66 134.39 422.53 -102.97 32.76zm478.18 -162.7l-68.17 -213.95 -280.19 -235.02 120.34 -38.35 184.38 162.97 52.88 -238.58 118.1 -37.63 -92.32 354.52 67.95 213.24 -102.95 32.81zm549.88 -163.49l-134.05 -511.81 104.51 -27.37 111.21 424.59 258.79 -67.78 22.85 87.22 -363.31 95.17zm392.26 -376.14c-10.39,-53.4 -11.07,-99.82 -2.17,-139.27 6.63,-28.99 18.3,-56.18 34.78,-81.41 16.47,-25.22 35.97,-45.33 58.46,-60.46 29.98,-20.14 66.3,-34.42 108.97,-42.72 77.3,-15.04 143.66,-3.02 199.43,35.85 55.66,39.02 91.81,101.2 108.43,186.67 16.49,84.72 6.36,155.52 -30.31,212.26 -36.63,56.84 -93.55,92.72 -170.47,107.69 -77.91,15.16 -144.58,3.46 -199.82,-35.27 -55.22,-38.6 -91.02,-99.7 -107.3,-183.33zm108.31 -24.75c11.55,59.38 34.08,101.68 67.48,127.06 33.39,25.26 71.25,33.84 113.43,25.64 42.31,-8.23 73.96,-30.21 95.24,-65.86 21.13,-35.74 25.8,-83.97 13.96,-144.82 -11.7,-60.1 -33.59,-102.39 -65.78,-126.75 -32.1,-24.5 -69.96,-32.45 -113.72,-23.92 -43.65,8.48 -75.97,30.34 -96.85,65.4 -20.87,35.19 -25.49,82.9 -13.75,143.24zm514.42 -93.92c-5.49,-54.13 -1.95,-100.42 10.51,-138.89 9.23,-28.27 23.32,-54.3 42.03,-77.91 18.7,-23.62 39.94,-41.88 63.72,-54.9 31.7,-17.32 69.16,-28.24 112.41,-32.63 78.35,-7.95 143.34,10.05 195.33,53.84 51.9,43.91 82.22,109.13 91.02,195.75 8.71,85.87 -7.82,155.46 -49.49,208.63 -41.66,53.28 -101.6,83.83 -179.57,91.74 -78.96,8.01 -144.3,-9.7 -195.78,-53.29 -51.47,-43.46 -81.58,-107.57 -90.17,-192.33zm110.1 -14.79c6.1,60.16 24.7,104.35 55.66,132.66 30.95,28.19 67.86,40.19 110.62,35.84 42.88,-4.35 76.41,-23.35 100.83,-56.91 24.3,-33.67 33.33,-81.29 27.08,-142.95 -6.18,-60.91 -24.14,-105.02 -53.98,-132.21 -29.75,-27.31 -66.72,-38.68 -111.09,-34.18 -44.23,4.49 -78.4,23.31 -102.4,56.33 -23.98,33.14 -32.92,80.23 -26.73,141.41zm544.43 215.07l63.71 -529.74 171.52 20.62c64.98,7.82 106.97,15.5 126.06,23.17 29.37,11.67 52.69,31.98 69.96,61.07 17.26,29.11 23.36,64.73 18.3,106.91 -3.92,32.55 -13.11,59.1 -27.5,79.88 -14.5,20.77 -31.51,36.37 -51.18,46.88 -19.64,10.4 -39.14,16.56 -58.37,18.37 -26.13,1.98 -63.31,0.15 -111.65,-5.67l-69.55 -8.36 -24.02 199.75 -107.29 -12.9zm160.22 -427.32l-18.15 150.94 58.32 7.01c42.04,5.06 70.38,5.6 85.23,1.74 14.85,-3.84 26.99,-11.14 36.44,-22.13 9.43,-10.86 15.16,-24.07 17.05,-39.86 2.33,-19.36 -1.43,-35.94 -11.15,-49.87 -9.83,-13.94 -23.06,-23.55 -40.06,-28.84 -12.43,-3.88 -37.79,-8.18 -76.27,-12.8l-51.42 -6.18z"/>
  </g>
 </g>
</svg>
