<?xml version="1.0" encoding="UTF-8"?>
<!DOCTYPE svg PUBLIC "-//W3C//DTD SVG 1.1//EN" "http://www.w3.org/Graphics/SVG/1.1/DTD/svg11.dtd">
<!-- Creator: CorelDRAW 2021 (64-Bit) -->
<svg xmlns="http://www.w3.org/2000/svg" xml:space="preserve" width="2.76802in" height="1.38801in" version="1.1" style="shape-rendering:geometricPrecision; text-rendering:geometricPrecision; image-rendering:optimizeQuality; fill-rule:evenodd; clip-rule:evenodd"
viewBox="0 0 477.79 239.58"
 xmlns:xlink="http://www.w3.org/1999/xlink"
 xmlns:xodm="http://www.corel.com/coreldraw/odm/2003">
 <defs>
  <style type="text/css">
   <![CDATA[
    .fil1 {fill:#FEFEFE}
    .fil0 {fill:#373435;fill-rule:nonzero}
   ]]>
  </style>
 </defs>
 <g id="Layer_x0020_1">
  <metadata id="CorelCorpID_0Corel-Layer"/>
  <g id="_2062528719296">
   <path class="fil0" d="M353.55 4.21l0.88 -3.91c3.49,0 6.99,0 10.48,0 5.32,0.78 8.08,3.84 5.81,11.37 -3.49,15.36 -6.99,30.73 -10.48,46.09 2,-1.01 3.74,-2.62 4.04,-7.58 1.31,0 2.61,0 3.92,0 -0.66,7.89 -3.89,13.13 -11.49,13.89 -7.34,-0.27 -10.68,-4.96 -9.34,-12.38l10.99 -47.48 -4.8 0z"/>
   <path class="fil0" d="M293.08 59.62c2.62,0 5.24,0 7.85,0 -0.1,1.52 -0.19,3.04 -0.29,4.57 -5.95,0 -11.9,0 -17.85,0 0.14,-1.62 0.29,-3.24 0.43,-4.85 1.67,-0.05 3.33,-0.1 5,-0.14 9.52,-17.61 19.04,-35.22 28.56,-52.83 3.11,-8.51 16.4,-8.77 17.14,1 1.76,17.18 3.52,34.36 5.28,51.55 1.81,0 3.62,0 5.43,0 0,1.62 0,3.24 0,4.85 -8.52,0 -17.04,0 -25.56,0 0,-1.62 0,-3.24 0,-4.85 1.9,0.1 3.81,0.19 5.71,0.28 -0.48,-6.23 -0.95,-12.47 -1.43,-18.71 -6.81,0 -13.61,0 -20.42,0 -3.28,6.38 -6.57,12.76 -9.85,19.13z"/>
   <path class="fil0" d="M243.81 39.27c-7.68,7.61 -8.9,18.84 -2.71,25.08 6.18,6.24 17.42,5.12 25.1,-2.49 7.68,-7.61 8.9,-18.84 2.71,-25.08 -6.18,-6.24 -17.42,-5.12 -25.1,2.49z"/>
   <path class="fil0" d="M189.76 39.27c-7.68,7.61 -8.9,18.84 -2.71,25.08 6.18,6.24 17.42,5.12 25.1,-2.49 7.68,-7.61 8.9,-18.84 2.71,-25.08 -6.18,-6.24 -17.42,-5.12 -25.1,2.49z"/>
   <path class="fil0" d="M258.47 188.54c0.05,9.06 4.67,13.23 12.92,13.54 39.38,-2.94 78.75,-5.88 118.13,-8.82 22.19,-0.59 28.2,10.43 25.23,27.89 -3.76,16.2 -17.49,18.48 -33.84,18.43 0,-1.3 0,-2.75 0,-4.05 8.7,0.57 17.36,1.28 25.02,-6.8 3.82,-4.95 1.44,-7.12 -6.15,-6.97 -41.22,3.21 -82.45,6.43 -123.67,9.64 -25.61,1.22 -29.56,-21.87 -17.64,-42.86z"/>
   <path class="fil0" d="M388.64 40.93c0.72,-2.17 1.45,-4.34 2.17,-6.51 9.14,0 18.29,0 27.43,0 9.85,0.98 13.48,8.53 10.97,22.58 -2.82,12.52 -5.65,25.05 -8.47,37.57 15.53,-18.85 46.31,-17.25 54.22,4.24 10.73,37.08 -9.87,79.67 -47.06,86.37 -24.43,1.77 -42.34,-4.12 -55.92,-15.11 10.24,-43.25 20.48,-86.5 30.72,-129.74 -4.68,0.2 -9.36,0.4 -14.04,0.6z"/>
   <path class="fil0" d="M332.04 97.24c6.28,-10.72 18.29,-14.41 33.11,-12.6 -6.98,30.05 -13.95,60.1 -20.93,90.14 -0.32,2.25 1.07,3 3.24,2.32 7.88,-3.36 10.1,-11.13 10,-21.33 1.92,0.29 3.85,0.57 5.77,0.85 -0.19,12.73 -1.88,27.72 -25.58,29.57 -11.31,0.36 -17.64,-5.72 -20.98,-16.75 -11.01,14.41 -24.06,20.03 -36.95,16.66 -16.74,-4.38 -24.19,-21.45 -16.23,-53.19 9.03,-23.8 21.36,-43.36 44.64,-48.92 10.28,-1.74 18.2,1.88 23.92,13.24zm-48.73 82.53c6.53,-27.05 13.07,-54.1 19.6,-81.15 5.31,-11 13.99,-11.03 21.88,-1.37 3.72,7.12 4.03,13.48 2.28,19.38 -12.63,66.08 -29.16,62.45 -43.77,63.15z"/>
   <path class="fil0" d="M223.97 92.72c0.42,-2.05 0.84,-4.09 1.26,-6.14 7.4,-0.16 14.8,-0.31 22.2,-0.47 13.21,1.26 17.39,10.83 12.28,28.97 -6.91,28.52 -13.81,57.04 -20.72,85.56 -12.36,24.86 -31,32.49 -52.8,31.38 -16.04,-1.91 -22.2,-23.18 -8.97,-31.63 8.99,-6.88 21.32,-1.3 18.43,8.22 -1.83,6.04 -1.92,11.46 -3.25,17.19 11.58,2.99 13.53,-10.57 17.44,-27.15 8.32,-35.46 16.64,-70.93 24.96,-106.4 -3.61,0.16 -7.22,0.32 -10.83,0.48z"/>
   <path class="fil0" d="M162.95 93.34c0.45,-2.06 0.89,-4.12 1.34,-6.18 8.77,0 17.54,0 26.31,0 13.05,1.3 16.42,10.87 12.01,25.46 -4.65,22.38 -9.5,43.99 -14.15,66.37 9.12,-2.14 13.44,-9.35 12.62,-22.02 1.88,0.27 3.76,0.54 5.64,0.81 0.04,16.04 -4.19,28.99 -25.24,29.8 -17.51,-1.4 -21.44,-11.99 -19.06,-26.85 4.83,-22.38 9.67,-44.75 14.5,-67.13 -4.66,-0.09 -9.31,-0.18 -13.96,-0.27z"/>
   <path class="fil0" d="M13.06 180.15l30.8 -134.67 -10.89 0.31 0.62 -6.22 53.5 -0.93 -1.55 7.15 -11.82 0 -14.62 64.39 58.17 0 14.31 -66.26 -11.2 0 0.93 -6.22 53.5 0 0 5.91 -13.38 -0.31c-9.85,42.93 -19.7,85.85 -29.55,128.78 -2.88,7.97 4.14,10.75 12.13,4.35l0 5.91c-19.15,12.82 -45.2,3.53 -38.57,-23.33l9.95 -42.93 -57.86 0 -14.62 64.06 11.51 0 -0.62 6.86 -53.81 0 1.56 -6.86 11.51 0z"/>
   <polygon class="fil1" points="320.52,8.87 322.55,37.06 304.97,37.06 "/>
   <path class="fil1" d="M283.31 179.78c6.53,-27.05 13.07,-54.1 19.6,-81.15 5.31,-11 13.99,-11.03 21.88,-1.37 3.72,7.12 4.03,13.48 2.28,19.38 -12.63,66.08 -29.16,62.45 -43.77,63.15z"/>
   <path class="fil1" d="M400.95 177.42c3.71,-11.7 9.93,-45.57 14.29,-57.72 12.91,-35.93 30.49,-29.42 39.75,-30.14 -5.32,22.4 -10.48,44.41 -15.8,66.81 -3.54,15.73 -10.73,23.46 -21.76,22.81 -5.5,-0.59 -11,-1.17 -16.49,-1.75z"/>
  </g>
 </g>
</svg>
