<?xml version="1.0" encoding="UTF-8"?>
<!DOCTYPE svg PUBLIC "-//W3C//DTD SVG 1.1//EN" "http://www.w3.org/Graphics/SVG/1.1/DTD/svg11.dtd">
<!-- Creator: CorelDRAW 2021 (64-Bit) -->
<svg xmlns="http://www.w3.org/2000/svg" xml:space="preserve" width="1.29121in" height="0.383272in" version="1.1" style="shape-rendering:geometricPrecision; text-rendering:geometricPrecision; image-rendering:optimizeQuality; fill-rule:evenodd; clip-rule:evenodd"
viewBox="0 0 972.12 288.55"
 xmlns:xlink="http://www.w3.org/1999/xlink"
 xmlns:xodm="http://www.corel.com/coreldraw/odm/2003">
 <defs>
  <style type="text/css">
   <![CDATA[
    .fil0 {fill:#373435}
    .fil1 {fill:#373435;fill-rule:nonzero}
   ]]>
  </style>
 </defs>
 <g id="Layer_x0020_1">
  <metadata id="CorelCorpID_0Corel-Layer"/>
  <g id="_2064147123008">
   <path class="fil0" d="M135.69 5.07c1.77,-1.48 3.54,-2.94 5.3,-4.36 0.13,-0.23 0.21,-0.47 0.35,-0.71 0,0 -0.79,0.4 -2.23,1.16l0.01 -0.01c-7.62,4.05 -33.97,18.82 -61.72,43.01l-0.37 0.33 -2.88 2.55 -0.39 0.34 -2.9 2.65 -0.42 0.39 -2.74 2.57 -0.58 0.55 -2.83 2.74 -0.36 0.35c-0.9,0.88 -1.78,1.76 -2.67,2.66l-0.7 0.7c-0.97,0.98 -1.94,1.98 -2.9,2.98l-0.19 0.19c-1.02,1.06 -2.03,2.13 -3.04,3.22l-0.21 0.22c-1,1.08 -1.99,2.17 -2.98,3.28l-0.22 0.24c-2.12,2.37 -4.21,4.8 -6.27,7.28l-0.02 0.01c-1.01,1.22 -2.01,2.45 -3,3.69l-0.38 0.48c-0.83,1.04 -1.65,2.1 -2.46,3.16l-0.85 1.12c-0.7,0.92 -1.4,1.85 -2.08,2.78l-0.75 1.04c-0.69,0.95 -1.38,1.91 -2.06,2.87l-0.84 1.21c-0.62,0.9 -1.24,1.81 -1.85,2.72l-0.9 1.35 -1.81 2.8 -0.8 1.26c-0.6,0.95 -1.19,1.91 -1.78,2.88l-0.83 1.38c-0.56,0.94 -1.11,1.89 -1.65,2.84l-0.81 1.43c-0.61,1.08 -1.19,2.16 -1.78,3.25l-0.51 0.95c-0.61,1.14 -1.2,2.3 -1.78,3.46l-0.53 1.05c-1.47,2.97 -2.87,5.98 -4.18,9.05l-0.24 0.58c-0.56,1.33 -1.11,2.66 -1.65,4.01l-0.49 1.28c-0.44,1.15 -0.88,2.3 -1.3,3.46l-0.51 1.47c-0.36,1.04 -0.73,2.08 -1.07,3.13l-0.66 2.1c-0.28,0.88 -0.55,1.75 -0.81,2.64l-0.63 2.23c-0.25,0.91 -0.5,1.82 -0.74,2.74l-0.53 2.1c-0.23,0.95 -0.46,1.89 -0.67,2.85l-0.49 2.25c-0.19,0.89 -0.36,1.78 -0.53,2.67l-0.45 2.43c-0.16,0.9 -0.3,1.8 -0.44,2.7l-0.36 2.37c-0.13,0.91 -0.24,1.83 -0.35,2.74l-0.3 2.5c-0.11,0.96 -0.18,1.93 -0.26,2.9l-0.2 2.25c-0.09,1.23 -0.14,2.46 -0.2,3.7l-0.08 1.61c-0.07,1.79 -0.1,3.59 -0.1,5.41 0,33.4 15.63,62.92 39.53,80.74 8.69,-6.51 27.41,-22.51 26.99,-39.51 -0.04,-1.64 -0.53,-3.31 -1.3,-5.1 -5.52,-0.1 -18.31,-4.53 -19.5,-13.35 -0.12,-0.9 0.33,-2.26 1.16,-3.95 -7.45,-4.04 -20.56,-12.35 -20.56,-20.68 0,-1.89 1.88,-5.23 5.14,-9.5 -2.21,-5.05 -4.87,-11.9 -5.14,-16.05 -0.12,-1.74 1.96,-6.17 5.56,-11.82 -1.51,-5.46 -2.84,-12.02 -2.26,-16.52 1.19,-9.06 7.59,-26.4 21.79,-28.8 6.31,-1.06 14.66,1.11 21.86,3.77 6.23,-3.52 12.6,-5.83 18.8,-6.06 0.04,-0.53 0.08,-1.07 0.13,-1.6 3.94,-38.83 21.43,-70.96 43.5,-96.77zm-8.16 276.56c34.08,-14.63 58.28,-50.02 57.76,-91.35 -0.39,-31.51 -14.48,-60.06 -27.87,-87.13 -4.94,6.86 -9.51,13.93 -13.67,21.23 7.79,3.71 13.28,24.92 13.97,28.75 0.09,0.46 -1.08,1.82 -3.15,3.84 2.78,9.62 2.98,16.84 2.5,18.7 -0.74,2.86 -3.89,4.44 -3.82,8.21 0.14,7.59 13.65,20.13 13.65,25.52 0,4.02 -10.9,5.5 -10.9,5.5 0,0 -0.9,2.48 0.92,7.3 1.82,4.82 -3.39,10.42 -4.96,12.37 -1.54,1.94 -0.3,13.45 -1.57,16.85 -1.27,3.38 -4.8,5.33 -11.39,3.12 -7.15,-2.39 -15.98,-5.91 -19.17,-4.99 7.3,13.38 9.11,23.87 7.69,32.1zm15.36 -157.58c3.93,-8.18 8.31,-16.12 13.09,-23.83 -5.94,-12.04 -11.65,-23.8 -15.83,-35.41 -10.88,14.3 -20.49,29.34 -28.62,45.19 1.06,0.75 2.05,1.53 2.98,2.31 4,-1.29 7.45,-1.71 10.06,-0.99 5.52,1.55 9.79,8.96 11.99,13.65 2.62,-1 4.79,-1.36 6.33,-0.92zm-31.6 -14.22c0.61,-1.52 1.24,-3.04 1.92,-4.55 7.18,-15.88 15.65,-31.06 25.21,-45.6 -4.46,-13.96 -6.43,-27.72 -3.64,-41.53 -21.04,22.85 -37.87,51.17 -42.62,85.29l0.93 -0.02c7,0 13.25,2.92 18.21,6.4z"/>
   <path class="fil1" d="M308.92 283.87c2.98,-9 6.22,-30.95 5.95,-41.03 -14.34,-2.88 -34.64,-2.52 -53.31,-2.16 11.63,-58.31 33.55,-142.89 44.1,-199.04 1.08,-5.76 -3.79,-6.12 -8.39,-6.12 -10.01,0 -21.11,2.16 -28.95,4.68 -11.64,57.59 -31.39,138.93 -44.1,201.56 -2.44,12.24 -4.87,26.27 -5.14,38.15 4.06,4.68 5.41,5.76 14.07,5.4 24.62,-0.72 52.22,-1.08 75.76,-1.44zm9.62 -1.44c10.01,2.52 26.79,1.8 34.9,-1.8 14.61,-83.5 34.09,-161.61 52.76,-240.07 1.35,-5.76 -3.79,-5.76 -8.12,-5.76 -10.55,0 -20.83,0.72 -28.68,4.32 -14.07,72.71 -41.4,170.61 -50.87,243.32zm105.67 -106.18c4.87,-1.08 9.47,-1.44 13.26,-1.44 20.02,1.08 32.2,12.96 27.33,36.35 -3.79,19.44 -18.13,34.91 -38.69,34.91 -6.22,0 -10.82,-0.72 -14.88,-2.88 1.35,-17.99 8.66,-48.59 12.99,-66.95zm24.08 -101.86c22.73,-6.12 42.48,2.16 37.61,26.27 -5.14,24.84 -27.06,38.52 -52.49,37.43 3.79,-18.72 10.01,-44.99 14.89,-63.71zm18.67 -42.47c-17.32,0 -36.53,4.32 -51.68,11.88 -0.54,7.56 -0.27,16.19 0.27,23.03 -18.4,73.06 -27.06,116.26 -44.64,196.16 1.89,21.6 20.83,25.19 41.67,25.56 34.91,0.36 77.93,-15.48 89.83,-73.78 6.23,-31.68 -1.62,-55.43 -24.35,-62.27 24.62,-9.72 39.51,-35.63 43.56,-55.79 7.31,-36.35 -13.26,-63.71 -54.66,-64.79zm66.98 248.35c6.49,-47.51 14.34,-89.62 24.63,-132.82 3.79,56.15 21.65,119.5 31.12,138.58 8.39,0 18.13,-1.44 24.62,-4.32 12.99,-87.46 33.01,-173.13 50.06,-245.83 -10.01,-1.08 -24.35,-1.44 -34.9,2.16 -9.47,28.8 -25.43,102.22 -30.57,134.62 -10.56,-53.63 -14.89,-88.9 -18.13,-135.69 -8.39,-2.16 -23.54,-0.72 -31.39,2.16 -7.58,17.28 -43.56,180.33 -51.68,244.4 10.01,1.8 27.87,0.36 36.26,-3.24zm88.08 -5.1c0,2.16 1.35,5.1 4.33,6.18 8.12,2.16 25.16,2.52 30.03,0.72 4.33,-18.78 9.74,-37.49 14.61,-48.65 12.44,-0.72 37.61,-2.22 41.94,-1.08 -1.62,35.63 -1.62,46.07 5.14,52.97 10.82,0 23.54,-2.52 31.66,-6.9 -4.87,-74.93 5.69,-177.99 10.56,-239.3 -4.87,-3.24 -11.37,-4.32 -17.59,-4.32 -9.74,0 -19.21,1.08 -28.41,2.88 -18.94,40.01 -78.47,183.8 -92.27,237.5zm102.82 -189.57c-4.05,35.33 -7.85,80.39 -9.2,104.92 -10.01,-0.36 -19.21,-0.36 -29.77,0.72 10.82,-32.45 24.62,-68.51 38.96,-105.64zm66.71 194.67c6.49,-47.51 14.34,-89.62 24.63,-132.82 3.79,56.15 21.65,119.5 31.12,138.58 8.39,0 18.13,-1.44 24.62,-4.32 12.99,-87.46 33.01,-173.13 50.06,-245.83 -10.01,-1.08 -24.35,-1.44 -34.9,2.16 -9.47,28.8 -25.43,102.22 -30.58,134.62 -10.55,-53.63 -14.88,-88.9 -18.13,-135.69 -8.39,-2.16 -23.54,-0.72 -31.39,2.16 -7.58,17.28 -43.56,180.33 -51.68,244.4 10.01,1.8 27.87,0.36 36.26,-3.24zm92.68 2.16c10.01,2.52 26.79,1.8 34.91,-1.8 14.61,-83.5 34.09,-161.61 52.76,-240.07 1.35,-5.76 -3.79,-5.76 -8.12,-5.76 -10.55,0 -20.83,0.72 -28.68,4.32 -14.07,72.71 -41.4,170.61 -50.87,243.32z"/>
  </g>
 </g>
</svg>
