<?xml version="1.0" encoding="UTF-8"?>
<!DOCTYPE svg PUBLIC "-//W3C//DTD SVG 1.1//EN" "http://www.w3.org/Graphics/SVG/1.1/DTD/svg11.dtd">
<!-- Creator: CorelDRAW 2021 (64-Bit) -->
<svg xmlns="http://www.w3.org/2000/svg" xml:space="preserve" width="2.77492in" height="0.841098in" version="1.1" style="shape-rendering:geometricPrecision; text-rendering:geometricPrecision; image-rendering:optimizeQuality; fill-rule:evenodd; clip-rule:evenodd"
viewBox="0 0 487.88 147.88"
 xmlns:xlink="http://www.w3.org/1999/xlink"
 xmlns:xodm="http://www.corel.com/coreldraw/odm/2003">
 <defs>
  <style type="text/css">
   <![CDATA[
    .fil0 {fill:#333333;fill-rule:nonzero}
   ]]>
  </style>
 </defs>
 <g id="Layer_x0020_1">
  <metadata id="CorelCorpID_0Corel-Layer"/>
  <g id="_2738633684640">
   <path class="fil0" d="M58.2 145.18c1.93,-5.18 4.03,-17.84 3.86,-23.64 -9.29,-1.66 -22.44,-1.45 -34.54,-1.24 7.54,-33.6 21.74,-82.34 28.57,-114.69 0.7,-3.32 -2.45,-3.53 -5.43,-3.53 -6.49,0 -13.68,1.24 -18.76,2.7 -7.54,33.18 -20.34,80.06 -28.57,116.15 -1.58,7.05 -3.16,15.14 -3.33,21.98 2.63,2.7 3.51,3.32 9.12,3.11 15.95,-0.42 33.83,-0.62 49.09,-0.83zm6.23 -0.83c6.49,1.45 17.35,1.04 22.62,-1.04 9.47,-48.12 22.09,-93.12 34.18,-138.34 0.88,-3.32 -2.45,-3.32 -5.26,-3.32 -6.84,0 -13.5,0.41 -18.58,2.49 -9.12,41.9 -26.82,98.31 -32.96,140.2zm68.46 -61.18c3.16,-0.62 6.14,-0.83 8.59,-0.83 12.97,0.62 20.86,7.47 17.71,20.95 -2.45,11.2 -11.75,20.12 -25.07,20.12 -4.03,0 -7.01,-0.41 -9.64,-1.66 0.88,-10.37 5.61,-28 8.42,-38.58zm15.6 -58.69c14.72,-3.53 27.52,1.24 24.37,15.14 -3.33,14.31 -17.53,22.19 -34.01,21.57 2.45,-10.79 6.49,-25.92 9.64,-36.71zm12.1 -24.47c-11.22,0 -23.67,2.49 -33.48,6.85 -0.35,4.35 -0.18,9.33 0.18,13.27 -11.92,42.1 -17.53,66.99 -28.92,113.03 1.23,12.44 13.5,14.52 27,14.73 22.62,0.21 50.49,-8.92 58.2,-42.52 4.03,-18.25 -1.05,-31.94 -15.78,-35.88 15.95,-5.6 25.59,-20.53 28.22,-32.15 4.73,-20.95 -8.59,-36.71 -35.41,-37.33zm43.39 143.11c4.21,-27.38 9.29,-51.64 15.95,-76.53 2.45,32.36 14.02,68.86 20.16,79.85 5.43,0 11.75,-0.83 15.95,-2.49 8.42,-50.4 21.39,-99.76 32.43,-141.66 -6.49,-0.62 -15.78,-0.83 -22.61,1.24 -6.14,16.59 -16.48,58.9 -19.81,77.57 -6.84,-30.9 -9.64,-51.23 -11.75,-78.19 -5.44,-1.24 -15.25,-0.41 -20.34,1.24 -4.91,9.96 -28.23,103.91 -33.48,140.83 6.48,1.04 18.06,0.21 23.49,-1.87zm57.07 -2.94c0,1.24 0.88,2.94 2.81,3.56 5.26,1.24 16.3,1.45 19.46,0.41 2.81,-10.82 6.31,-21.6 9.47,-28.03 8.06,-0.41 24.37,-1.28 27.17,-0.62 -1.05,20.53 -1.05,26.55 3.33,30.52 7.01,0 15.25,-1.45 20.51,-3.98 -3.16,-43.18 3.68,-102.56 6.84,-137.89 -3.15,-1.87 -7.36,-2.49 -11.39,-2.49 -6.31,0 -12.45,0.62 -18.41,1.66 -12.27,23.06 -50.84,105.91 -59.78,136.85zm66.62 -109.23c-2.63,20.36 -5.08,46.32 -5.96,60.46 -6.49,-0.21 -12.45,-0.21 -19.28,0.41 7.01,-18.7 15.95,-39.48 25.24,-60.87zm43.22 112.17c4.21,-27.38 9.29,-51.64 15.95,-76.53 2.46,32.36 14.03,68.86 20.16,79.85 5.43,0 11.75,-0.83 15.95,-2.49 8.42,-50.4 21.39,-99.76 32.43,-141.66 -6.49,-0.62 -15.78,-0.83 -22.61,1.24 -6.14,16.59 -16.48,58.9 -19.81,77.57 -6.84,-30.9 -9.64,-51.23 -11.75,-78.19 -5.44,-1.24 -15.25,-0.41 -20.34,1.24 -4.91,9.96 -28.23,103.91 -33.48,140.83 6.49,1.04 18.06,0.21 23.49,-1.87zm60.05 1.24c6.49,1.45 17.36,1.04 22.62,-1.04 9.47,-48.12 22.09,-93.12 34.18,-138.34 0.88,-3.32 -2.45,-3.32 -5.26,-3.32 -6.84,0 -13.5,0.41 -18.58,2.49 -9.12,41.9 -26.82,98.31 -32.96,140.2z"/>
  </g>
 </g>
</svg>
