<?xml version="1.0" encoding="UTF-8"?>
<!DOCTYPE svg PUBLIC "-//W3C//DTD SVG 1.1//EN" "http://www.w3.org/Graphics/SVG/1.1/DTD/svg11.dtd">
<!-- Creator: CorelDRAW 2021 (64-Bit) -->
<svg xmlns="http://www.w3.org/2000/svg" xml:space="preserve" width="0.98385in" height="0.438917in" version="1.1" style="shape-rendering:geometricPrecision; text-rendering:geometricPrecision; image-rendering:optimizeQuality; fill-rule:evenodd; clip-rule:evenodd"
viewBox="0 0 351.48 156.8"
 xmlns:xlink="http://www.w3.org/1999/xlink"
 xmlns:xodm="http://www.corel.com/coreldraw/odm/2003">
 <defs>
  <style type="text/css">
   <![CDATA[
    .fil0 {fill:#E6E7E8}
    .fil1 {fill:#373435;fill-rule:nonzero}
   ]]>
  </style>
 </defs>
 <g id="Layer_x0020_1">
  <metadata id="CorelCorpID_0Corel-Layer"/>
  <g id="_2064151831040">
   <path class="fil0" d="M175.74 0c97.06,0 175.74,35.1 175.74,78.4 0,43.3 -78.68,78.4 -175.74,78.4 -97.06,0 -175.74,-35.1 -175.74,-78.4 0,-43.3 78.68,-78.4 175.74,-78.4z"/>
   <g>
    <g>
     <path class="fil1" d="M252.98 87.36c-0.31,0.67 -1.07,1.7 -2.33,3.1 -1.25,1.4 -2.36,2.43 -3.31,3.1 -1.37,-0.96 -3.42,-2.9 -6.1,-5.84 0.11,-0.47 0.95,-1.53 2.46,-3.18 1.53,-1.64 2.68,-2.69 3.46,-3.18 1.31,1.26 3.25,3.26 5.82,6z"/>
     <path class="fil1" d="M259.6 97.59c-2.32,3.95 -4.24,6.07 -5.74,6.36 -2.5,-1.01 -4.6,-2.83 -6.27,-5.47 -1.25,1.45 -2.15,2.39 -2.69,2.88 -0.95,0.96 -1.93,1.74 -2.96,2.33 -1.2,-0.07 -2.63,-0.9 -4.29,-2.51 -1.26,-1.25 -2.1,-2.45 -2.51,-3.59 0.83,-1.25 2.83,-3.29 6,-6.1 1.44,1.79 2.43,2.93 2.96,3.4 1.2,1.26 2.42,2.07 3.68,2.43 0.23,-0.25 1.97,-2.07 5.2,-5.47 2.57,2.87 4.78,4.78 6.63,5.74z"/>
     <path class="fil1" d="M222.78 114.7c4.89,-0.06 8.93,-2.42 12.1,-7.07 0.42,-0.67 0.92,-0.78 1.51,-0.36 0.31,0.42 0.35,1.17 0.14,2.24 -0.21,1.07 -0.07,1.87 0.4,2.42 1.38,2.1 3.27,3.22 5.65,3.4 2.39,-0.06 4.14,-0.83 5.28,-2.32 0.6,-0.6 1.08,-1.64 1.43,-3.1 0.36,-1.46 0.78,-2.5 1.26,-3.1 0.53,0 0.86,0.22 0.99,0.64 0.05,0.18 0.05,0.63 0,1.33 -0.07,0.67 -0.03,1.11 0.08,1.35 1.2,2.63 3.43,4 6.72,4.13 0.9,0.06 1.71,-0.21 2.42,-0.81 0,-0.49 -0.21,-1.18 -0.63,-2.11 -0.42,-0.92 -0.62,-1.6 -0.62,-2.01 0,-0.42 0.08,-0.78 0.26,-1.07l2.42 -4.13c0.36,0.13 0.67,0.65 0.9,1.61 0.36,1.43 0.54,2.9 0.54,4.39 0,4.13 -1.22,7.79 -3.68,11.03 -0.78,1.01 -1.95,1.61 -3.49,1.79 -2.22,-0.18 -4.9,-1.79 -8.07,-4.85 -1.97,3.59 -4.18,5.56 -6.64,5.92 -2.03,0.31 -3.93,-0.36 -5.72,-1.97 -0.72,-0.65 -2.04,-2.29 -3.95,-4.93l-0.46 0c-0.83,1.62 -1.96,3.06 -3.4,4.31 -1.79,1.5 -3.61,2.24 -5.46,2.24 0,-3.87 0,-6.86 0,-8.96z"/>
     <path class="fil1" d="M223.58 114.8l0 8.96c-6.75,-0.13 -11.5,-2 -14.25,-5.65 -1.43,-2.14 -2.32,-5.17 -2.68,-9.04l-0.36 -9.6c0.05,-6.5 -0.08,-14.49 -0.44,-23.92 -0.18,-0.9 -0.39,-2.46 -0.63,-4.67 1.02,-3.88 1.75,-5.82 2.24,-5.82 0.13,0 0.21,0.05 0.26,0.18 0.9,0.36 1.5,2.25 1.79,5.7 0.31,3.43 0.67,7.99 1.08,13.66 0.18,8.07 0.53,14.38 1.07,18.92 0.65,7.22 4.63,10.99 11.92,11.3z"/>
     <path class="fil1" d="M199.68 107.8c-1.56,-3.4 -3.79,-5.74 -6.72,-6.99 -0.89,2.86 -1.64,4.99 -2.24,6.36 3.76,0.71 6.45,1.07 8.06,1.07 0.6,0 0.9,-0.14 0.9,-0.44zm-10.93 -10.57c-0.78,-1.32 -2.07,-1.97 -3.86,-1.97 -1.38,0 -2.6,0.36 -3.67,1.07 -1.32,1.61 -1.82,3.71 -1.53,6.28 0.13,1.25 0.99,2.26 2.6,3.04 0.6,0.13 1.17,0.18 1.71,0.18 2.45,0 4.24,-1.07 5.38,-3.22 0.29,-0.6 0.44,-1.26 0.44,-1.97 0,-1.25 -0.36,-2.39 -1.07,-3.4zm-20.26 19.27l0 -8.96c2.93,-0.07 5.53,-0.36 7.79,-0.9 -0.13,-0.78 -0.18,-1.56 -0.18,-2.33 0,-6.08 2.84,-11.67 8.52,-16.75 0.54,-1.56 1.64,-3.71 3.32,-6.46 0.36,0 0.63,0.18 0.81,0.54 0.18,0.36 0.32,0.69 0.44,0.99 0.78,2.39 2.57,5.06 5.38,7.97 3.77,3.89 5.97,6.33 6.64,7.35 1.07,1.61 1.61,3.63 1.61,6.02 0,1.49 -0.24,3.4 -0.72,5.72 -0.42,4.54 -2.86,6.82 -7.35,6.82 -1.79,0 -4.31,-0.24 -7.53,-0.72 -2.45,-0.42 -4.9,-0.81 -7.35,-1.17 -4.06,1.26 -7.85,1.89 -11.38,1.89zm-10.93 0.81c-2.03,4 -3.79,6.21 -5.29,6.63 -2.56,-0.83 -4.78,-2.5 -6.63,-5.02 -1.25,1.61 -2.06,2.63 -2.42,3.04 -0.96,1.08 -1.92,1.95 -2.87,2.6 -1.2,0 -2.68,-0.74 -4.47,-2.24 -1.32,-1.07 -2.21,-2.21 -2.7,-3.4 0.83,-1.43 2.7,-3.61 5.56,-6.54 1.68,1.85 2.72,2.96 3.14,3.32 1.32,1.14 2.6,1.85 3.85,2.15 1.03,-1.26 2.64,-3.24 4.85,-5.92 1.56,1.56 2.65,2.6 3.32,3.14 1.2,0.94 2.42,1.69 3.67,2.24zm12.46 -9.77l0 8.96c-6.64,0 -11.3,-1.53 -13.99,-4.57 -2.81,-2.7 -4.57,-7.14 -5.28,-13.35 -1.79,5.38 -5.79,8.03 -12.02,7.97l0 -8.96c4,0 6.83,-0.78 8.47,-2.33 1.64,-1.55 2.41,-3.44 2.28,-5.65 0,-0.53 0,-1.1 0,-1.69 -0.11,-1.08 0.07,-2.15 0.54,-3.24 0.54,-1.67 1.17,-2.56 1.89,-2.68 0.11,0 0.21,0.05 0.26,0.18 1.38,7.89 2.18,12.34 2.42,13.35 1.08,4.07 2.63,6.96 4.67,8.7 2.21,2.33 5.79,3.43 10.75,3.32zm-53.6 -5.02c-0.25,0.65 -0.97,1.68 -2.19,3.08 -1.24,1.4 -2.32,2.47 -3.28,3.18 -1.61,-1.07 -3.71,-2.95 -6.28,-5.64 0.13,-0.47 0.93,-1.56 2.43,-3.22 1.49,-1.68 2.6,-2.75 3.31,-3.22 1.38,1.19 3.38,3.13 6.02,5.82zm11.2 -0.44c-0.78,-1.63 -1.14,-2.52 -1.07,-2.7 -1.26,-5.25 -0.96,-8.34 0.89,-9.23 0.42,0 0.65,0.29 0.72,0.89 0.42,1.5 1.35,2.81 2.78,3.95 2.39,1.67 5.32,2.44 8.78,2.33l0 8.96c-2.26,-0.13 -4.15,0 -5.64,0.36 -1.14,8.72 -3.5,15.09 -7.09,19.09 -5.43,6.03 -11.45,9.04 -18.02,9.04 -1.74,0 -3.43,-0.24 -5.11,-0.71 -4.83,-1.5 -8.75,-4.57 -11.74,-9.24 -2.86,-4.47 -4.29,-9.38 -4.29,-14.7 0,-7.22 2.83,-13.59 8.5,-19.09 0.13,-0.05 0.36,0.06 0.72,0.36 -0.13,0.71 -0.5,1.61 -1.17,2.68 -0.78,1.26 -1.28,2.13 -1.51,2.61 -2.04,3.75 -3.06,7.31 -3.06,10.66 0,5.44 2.42,9.68 7.27,12.73 4.6,2.93 9.89,3.97 15.87,3.14 6.33,-0.96 11.43,-3.92 15.32,-8.88 0.72,-1.07 1.07,-2.24 1.07,-3.49 0,-1.5 -1.07,-4.42 -3.22,-8.78z"/>
    </g>
    <path class="fil1" d="M88.96 47.93l-1.65 -0.69 -1.74 -0.52 -2.4 -0.56c-2.09,-0.52 -4.03,-1.21 -5.81,-2.08 -1.78,-0.87 -2.67,-2.86 -2.67,-5.98 0,-2.14 0.53,-3.98 1.59,-5.52 1.06,-1.54 2.69,-2.71 4.9,-3.49 2.21,-0.78 5.2,-1.17 8.97,-1.17l2.77 0c0.33,0 0.7,0.01 1.1,0.04 0.4,0.03 0.83,0.09 1.3,0.17 0.96,0.09 1.63,0.18 2,0.28 0.37,0.1 0.91,0.32 1.61,0.65 0.7,0.33 1.05,1.11 1.05,2.32 0,0.84 -0.19,1.66 -0.58,2.47 -0.94,0.49 -1.68,0.81 -2.23,0.95l-1.86 0.17 -4.01 0 -0.41 0 -1.65 0c-0.88,0 -1.63,0.03 -2.23,0.09 -0.61,0.06 -1.3,0.19 -2.07,0.41 -0.77,0.22 -1.16,0.59 -1.16,1.11 0,0.67 0.36,1.21 1.08,1.62l2.36 0.74 0.99 0.26 3.55 0.83c2.48,0.61 4.38,1.6 5.7,2.98 1.32,1.39 1.98,3.08 1.98,5.08 0,2.04 -0.36,3.93 -1.07,5.67 -0.72,1.74 -1.7,3.17 -2.94,4.3 -1.24,1.12 -2.59,1.82 -4.05,2.12l-3.23 0.52 -3.22 0 -2.77 0 -2.56 0 -2.15 0 -2.6 -0.17c-1.05,0 -1.83,-0.23 -2.36,-0.69 -0.52,-0.46 -0.78,-1.11 -0.78,-1.95l0 -0.17c0.08,-0.84 0.25,-1.51 0.52,-2.02 0.26,-0.5 1.04,-0.89 2.34,-1.15l2.4 -0.26 2.32 -0.13 5.29 -0.22c1.96,0 3.47,-0.31 4.53,-0.93 1.06,-0.62 1.59,-1.5 1.59,-2.62 0,-0.61 -0.21,-1.21 -0.62,-1.82l-1.12 -0.65zm12.69 6.22l0.66 -5.26 0.29 -2.17 0.16 -1.22 0.58 -3.73 0.62 -4.04 0.12 -0.83 0.74 -4.82c0.22,-1.59 0.56,-2.63 1.01,-3.13 0.45,-0.49 0.98,-0.82 1.59,-1l1.2 -0.22 0.74 0c0.83,0 1.43,0.09 1.82,0.28 0.39,0.19 0.8,0.59 1.24,1.19l0.12 0.95 0.04 1.13 -0.04 1 -0.12 1.34 -0.37 2.21 -0.13 1.26 0 1.04c0.3,0.49 0.75,0.74 1.32,0.74l1.78 0 0.83 -0.04 0.87 0.04 0.79 0 1.65 0c0.41,0 0.72,-0.04 0.93,-0.13 0.21,-0.09 0.42,-0.37 0.64,-0.87l0.25 -1.74 0.12 -0.95 0.41 -2.52c0,-0.27 0.08,-0.66 0.25,-1.18l0.29 -1.13 0.29 -0.78 0.58 -0.96c0.25,-0.35 0.55,-0.56 0.91,-0.65 0.36,-0.09 0.72,-0.14 1.07,-0.17 0.36,-0.03 0.94,-0.04 1.74,-0.04 1.05,0 1.76,0.22 2.13,0.65 0.37,0.44 0.56,1.31 0.56,2.61 0,0.95 -0.17,2.52 -0.5,4.69l-0.37 2.48 -0.04 0.43 -0.33 3 -0.5 3 -0.45 3.09 -0.37 3.05 -0.41 3 -0.54 2.96c-0.44,1.42 -0.97,2.44 -1.59,3.06 -0.62,0.63 -1.48,0.94 -2.58,0.94l-1.28 -0.13c-0.39,-0.09 -0.81,-0.26 -1.28,-0.52 -0.44,-0.69 -0.74,-1.25 -0.89,-1.67 -0.15,-0.42 -0.23,-0.92 -0.23,-1.5 0,-0.61 0.08,-1.34 0.25,-2.21l0.54 -2.69 0.29 -1.86 0.16 -1.82 0.29 -1.82 -0.74 -0.82 -1.45 0 -1.03 0 -2.6 0 -2.52 0c-0.14,0.14 -0.28,0.33 -0.43,0.54 -0.15,0.22 -0.28,0.43 -0.39,0.64 -0.14,0.38 -0.21,0.87 -0.21,1.48l-0.04 1.57 -0.37 3.14 -0.58 3.18c-0.33,1.36 -0.92,2.45 -1.78,3.27 -0.86,0.82 -1.85,1.22 -2.98,1.22 -1.07,0 -2.01,-0.42 -2.81,-1.26 -0.22,-0.64 -0.33,-1.23 -0.33,-1.78l0.08 -1.13 0.33 -2.38zm29.68 4.39c0,-1.74 0.19,-3.32 0.56,-4.73 0.37,-1.42 0.87,-2.94 1.51,-4.56 0.74,-1.88 1.13,-2.85 1.16,-2.91 0.41,-0.81 0.7,-1.4 0.87,-1.78l1.98 -4.12c0.5,-0.95 0.9,-1.7 1.2,-2.25 0.17,-0.29 0.46,-0.77 0.87,-1.43 0.41,-0.67 0.79,-1.28 1.14,-1.83 0.34,-0.55 0.74,-1.11 1.18,-1.69 0.8,-1.13 1.83,-2.47 3.1,-4.04 1.27,-0.92 2.51,-1.39 3.72,-1.39 1.6,0 3.05,0.79 4.34,2.36 1.3,1.57 2.35,3.35 3.16,5.34 0.81,1.98 1.34,3.69 1.59,5.1l0.58 3.15 0.29 1.78 0.17 1.17 0.08 0.77 0.12 1.99c0,0.38 0.04,0.68 0.12,0.91l0.17 1 0 2.55 0 1.82 0 0.56c0,2.91 -1.43,4.37 -4.28,4.37l-1.28 -0.04 -1.19 -0.56c-0.49,-1.04 -0.74,-1.75 -0.74,-2.12l-0.13 -2.38c0,-0.92 -0.45,-1.91 -1.34,-2.97 -0.9,-1.05 -2,-1.88 -3.33,-2.47 -1.32,-0.59 -2.69,-0.89 -4.09,-0.89l-1.03 0.04c-0.36,0.35 -0.68,0.71 -0.95,1.08l-0.7 1.6 -0.5 1.39 -0.04 0.17 -0.5 2.12 -0.33 1.34 -0.5 1.43c-0.16,0.52 -0.56,1.03 -1.18,1.52 -0.62,0.49 -1.33,0.74 -2.13,0.74 -1.18,0 -1.97,-0.09 -2.36,-0.26l-0.74 -0.52 -0.54 -0.87 -0.04 -0.52zm13.27 -15.72l1.24 0.43 1.41 0.13 1.24 0.39c0.63,0.49 1.25,0.74 1.86,0.74l0.41 -0.04 -0.17 -1.65 -0.37 -1.47 -0.33 -1.56c-0.22,-0.92 -0.4,-1.5 -0.54,-1.73 -0.08,-0.26 -0.37,-0.56 -0.87,-0.91l-1.53 1.69 -0.7 0.91 -0.62 1.04 -1.03 2.04zm17.65 11.33l0.66 -5.26 0.29 -2.17 0.17 -1.22 0.58 -3.73 0.62 -4.04 0.12 -0.83 0.74 -4.82c0.22,-1.59 0.56,-2.63 1.01,-3.13 0.46,-0.49 0.98,-0.82 1.59,-1l1.2 -0.22 0.74 0c0.83,0 1.43,0.09 1.82,0.28 0.39,0.19 0.8,0.59 1.24,1.19l0.12 0.95 0.04 1.13 -0.04 1 -0.12 1.34 -0.37 2.21 -0.13 1.26 0 1.04c0.3,0.49 0.75,0.74 1.32,0.74l1.78 0 0.83 -0.04 0.87 0.04 0.79 0 1.65 0c0.41,0 0.72,-0.04 0.93,-0.13 0.21,-0.09 0.42,-0.37 0.64,-0.87l0.25 -1.74 0.12 -0.95 0.41 -2.52c0,-0.27 0.08,-0.66 0.25,-1.18l0.29 -1.13 0.29 -0.78 0.58 -0.96c0.25,-0.35 0.55,-0.56 0.91,-0.65 0.36,-0.09 0.72,-0.14 1.07,-0.17 0.36,-0.03 0.94,-0.04 1.74,-0.04 1.05,0 1.76,0.22 2.13,0.65 0.37,0.44 0.56,1.31 0.56,2.61 0,0.95 -0.16,2.52 -0.5,4.69l-0.37 2.48 -0.04 0.43 -0.33 3 -0.5 3 -0.46 3.09 -0.37 3.05 -0.41 3 -0.54 2.96c-0.44,1.42 -0.97,2.44 -1.59,3.06 -0.62,0.63 -1.48,0.94 -2.58,0.94l-1.28 -0.13c-0.39,-0.09 -0.81,-0.26 -1.28,-0.52 -0.44,-0.69 -0.74,-1.25 -0.89,-1.67 -0.15,-0.42 -0.23,-0.92 -0.23,-1.5 0,-0.61 0.08,-1.34 0.25,-2.21l0.54 -2.69 0.29 -1.86 0.16 -1.82 0.29 -1.82 -0.74 -0.82 -1.45 0 -1.03 0 -2.6 0 -2.52 0c-0.14,0.14 -0.28,0.33 -0.43,0.54 -0.15,0.22 -0.28,0.43 -0.39,0.64 -0.14,0.38 -0.21,0.87 -0.21,1.48l-0.04 1.57 -0.37 3.14 -0.58 3.18c-0.33,1.36 -0.92,2.45 -1.78,3.27 -0.86,0.82 -1.85,1.22 -2.98,1.22 -1.07,0 -2.01,-0.42 -2.81,-1.26 -0.22,-0.64 -0.33,-1.23 -0.33,-1.78l0.08 -1.13 0.33 -2.38zm39.85 -26.28l1.53 0 2.07 0 2.23 0 0.78 0 1.78 0 0.25 0c4.02,0 6.03,1.14 6.03,3.42 0,0.82 -0.32,1.61 -0.95,2.35 -0.36,0.31 -0.73,0.54 -1.12,0.69l-1.41 0.17 -1.28 0 -1.98 0.17 -2.07 0 -1.07 0c-0.58,0 -1.14,0 -1.69,0 -0.55,0.09 -0.96,0.14 -1.24,0.17l-0.79 1.49c-0.08,0.24 -0.15,0.6 -0.21,1.1 0,0.9 0.39,1.36 1.16,1.36l2.11 -0.26 0.95 0 1.82 0 2.65 0.26c0.94,0 1.6,0.1 1.98,0.3 0.44,0.17 0.8,0.45 1.07,0.82 0.28,0.38 0.48,0.88 0.62,1.52 0,1.07 -0.14,1.87 -0.41,2.4 -0.28,0.53 -0.79,1.02 -1.53,1.45 -0.44,0.09 -0.97,0.17 -1.59,0.26 -0.62,0.09 -1.1,0.13 -1.43,0.13l-2.6 0 -2.94 0c-1.51,0 -2.39,0.06 -2.62,0.17 -0.23,0.12 -0.43,0.34 -0.6,0.66l-0.37 1.97 -0.37 2.28 -0.04 0.44 0.16 1.84 0.21 0.26 2.69 0.13c0.28,0 0.47,0 0.58,0l2.03 0.13 2.65 0c0.77,0 1.3,0 1.57,0 0.44,0 0.86,0.07 1.24,0.22 0.44,0.09 0.85,0.43 1.24,1 0.39,0.59 0.58,1.26 0.58,2.04 0,0.83 -0.19,1.57 -0.58,2.21 -0.39,0.64 -0.91,1.05 -1.57,1.23l-1.45 0.36 -2.6 0.09 -2.19 0 -1.98 0 -1.45 0 -2.48 0 -3.31 0c-2.65,0 -3.97,-0.93 -3.97,-2.77 0,-1.08 0.22,-2.54 0.66,-4.38l0.91 -6.24 0.87 -5.63 0.16 -0.95c0.06,-0.55 0.09,-0.9 0.1,-1.06 0.01,-0.16 0.09,-0.59 0.23,-1.28l0.62 -3.38 0.7 -3.51c0.44,-1.73 1.54,-2.92 3.31,-3.55l2.36 -0.09zm26.83 0l1.53 0 2.07 0 2.23 0 0.79 0 1.78 0 0.25 0c4.02,0 6.04,1.14 6.04,3.42 0,0.82 -0.32,1.61 -0.95,2.35 -0.36,0.31 -0.73,0.54 -1.12,0.69l-1.4 0.17 -1.28 0 -1.98 0.17 -2.07 0 -1.07 0c-0.58,0 -1.14,0 -1.69,0 -0.55,0.09 -0.96,0.14 -1.24,0.17l-0.78 1.49c-0.08,0.24 -0.15,0.6 -0.21,1.1 0,0.9 0.39,1.36 1.16,1.36l2.11 -0.26 0.95 0 1.82 0 2.65 0.26c0.94,0 1.6,0.1 1.98,0.3 0.44,0.17 0.8,0.45 1.07,0.82 0.28,0.38 0.48,0.88 0.62,1.52 0,1.07 -0.14,1.87 -0.41,2.4 -0.28,0.53 -0.79,1.02 -1.53,1.45 -0.44,0.09 -0.97,0.17 -1.59,0.26 -0.62,0.09 -1.09,0.13 -1.42,0.13l-2.6 0 -2.94 0c-1.51,0 -2.39,0.06 -2.62,0.17 -0.23,0.12 -0.43,0.34 -0.6,0.66l-0.37 1.97 -0.37 2.28 -0.04 0.44 0.17 1.84 0.21 0.26 2.69 0.13c0.28,0 0.47,0 0.58,0l2.03 0.13 2.65 0c0.77,0 1.3,0 1.57,0 0.44,0 0.86,0.07 1.24,0.22 0.44,0.09 0.85,0.43 1.24,1 0.39,0.59 0.58,1.26 0.58,2.04 0,0.83 -0.19,1.57 -0.58,2.21 -0.39,0.64 -0.91,1.05 -1.57,1.23l-1.45 0.36 -2.6 0.09 -2.19 0 -1.98 0 -1.45 0 -2.48 0 -3.31 0c-2.65,0 -3.97,-0.93 -3.97,-2.77 0,-1.08 0.22,-2.54 0.66,-4.38l0.91 -6.24 0.87 -5.63 0.16 -0.95c0.05,-0.55 0.09,-0.9 0.1,-1.06 0.01,-0.16 0.09,-0.59 0.23,-1.28l0.62 -3.38 0.7 -3.51c0.44,-1.73 1.54,-2.92 3.31,-3.55l2.35 -0.09zm26.21 -0.13c0.77,0 1.32,0.11 1.63,0.32 0.32,0.22 0.63,0.7 0.93,1.45l1.07 2.77c0.39,1.04 0.88,1.99 1.49,2.84 0.61,0.85 1.37,1.64 2.29,2.36 0.92,0.72 1.65,1.08 2.17,1.08 0.39,0 0.74,-0.34 1.05,-1.02 0.32,-0.68 0.53,-1.59 0.64,-2.75 0,-0.95 0.02,-1.6 0.06,-1.93 0.04,-0.33 0.13,-0.76 0.27,-1.28 0.25,-0.87 0.56,-1.63 0.93,-2.3 0.37,-0.66 1.18,-1.18 2.42,-1.56l0.7 0 1.12 0.13c0.85,0.12 1.45,0.38 1.8,0.8 0.34,0.42 0.52,1.08 0.52,1.98l-0.04 0.3 0 1.39 -0.04 1.17 -0.25 1.3c0,0.64 -0.02,1.12 -0.06,1.44 -0.04,0.32 -0.13,0.82 -0.27,1.52l-0.33 2.38c-0.17,1.77 -0.34,3.14 -0.54,4.12l-0.54 3.04 -1.82 9.97c-0.19,0.96 -0.43,1.67 -0.72,2.13 -0.29,0.46 -0.68,0.78 -1.18,0.95l-1.2 0.35 -0.78 0.09c-2.29,0 -3.43,-1.37 -3.43,-4.12 0,-0.96 0.12,-2.16 0.37,-3.6l0.45 -2.61 0.29 -1.39 0.17 -1.26 0.12 -1.13 -0.04 -0.26c-0.08,-0.2 -0.3,-0.4 -0.66,-0.59 -0.36,-0.19 -0.74,-0.28 -1.16,-0.28l-0.62 0.04 -2.07 -0.91 -1.16 -0.82 -1.08 -0.91 -1.78 -1.91 -0.75 1.13 -0.25 1.86 -0.21 1.56 -0.41 3.38 -0.5 3.29 -0.58 3.33 -0.78 3.25c-0.33,0.46 -0.7,0.85 -1.1,1.17 -0.4,0.32 -0.94,0.58 -1.63,0.78l-0.29 0 -1.24 -0.13c-0.66,-0.14 -1.14,-0.31 -1.43,-0.5 -0.29,-0.19 -0.63,-0.59 -1.01,-1.19l-0.08 -0.87 -0.04 -0.96c0,-0.43 0,-0.88 0,-1.34 0.08,-0.43 0.14,-0.75 0.17,-0.95l0.33 -2.13 0.25 -2.04 0.7 -3.69 0.54 -3.68 0.58 -3.82 0.54 -3.69 0.29 -2.08c0.33,-1.76 0.72,-3.04 1.18,-3.82 0.45,-0.78 1.37,-1.43 2.75,-1.95 0.5,-0.09 0.87,-0.14 1.12,-0.17 0.25,-0.03 0.62,-0.04 1.12,-0.04z"/>
   </g>
  </g>
 </g>
</svg>
