<?xml version="1.0" encoding="UTF-8"?>
<!DOCTYPE svg PUBLIC "-//W3C//DTD SVG 1.1//EN" "http://www.w3.org/Graphics/SVG/1.1/DTD/svg11.dtd">
<!-- Creator: CorelDRAW 2021 (64-Bit) -->
<svg xmlns="http://www.w3.org/2000/svg" xml:space="preserve" width="2.04088in" height="0.502539in" version="1.1" style="shape-rendering:geometricPrecision; text-rendering:geometricPrecision; image-rendering:optimizeQuality; fill-rule:evenodd; clip-rule:evenodd"
viewBox="0 0 5723.14 1409.25"
 xmlns:xlink="http://www.w3.org/1999/xlink"
 xmlns:xodm="http://www.corel.com/coreldraw/odm/2003">
 <defs>
  <style type="text/css">
   <![CDATA[
    .str0 {stroke:#373435;stroke-width:19.48;stroke-linecap:round;stroke-linejoin:round;stroke-miterlimit:2.61313}
    .fil0 {fill:#FEFEFE}
    .fil1 {fill:#373435}
    .fil2 {fill:#373435;fill-rule:nonzero}
   ]]>
  </style>
 </defs>
 <g id="Layer_x0020_1">
  <metadata id="CorelCorpID_0Corel-Layer"/>
  <g id="_2062533420992">
   <g>
    <path class="fil0 str0" d="M308.52 48.69l5106.1 0c0,142.91 116.93,259.84 259.82,259.84l0 792.21c-142.9,0 -259.82,116.93 -259.82,259.82l-5106.1 0c0,-142.9 -116.94,-259.82 -259.84,-259.82l0 -792.21c142.9,0 259.84,-116.93 259.84,-259.84z"/>
    <path class="fil1 str0" d="M308.52 9.74l5106.1 0c21.51,0 38.95,17.44 38.95,38.95 0,60.7 24.87,115.93 64.91,155.97 40.04,40.04 95.27,64.92 155.97,64.92 21.51,0 38.95,17.44 38.95,38.95l0 792.21c0,21.51 -17.44,38.95 -38.95,38.95 -60.76,0 -116,24.83 -156.03,64.84 -40.01,40.03 -64.84,95.27 -64.84,156.03 0,21.51 -17.44,38.95 -38.95,38.95l-5106.1 0c-21.51,0 -38.95,-17.44 -38.95,-38.95 0,-60.79 -24.82,-116.01 -64.77,-155.96l-0.14 0c-40.04,-40.04 -95.27,-64.92 -155.97,-64.92 -21.51,0 -38.95,-17.44 -38.95,-38.95l0 -792.21c0,-21.51 17.44,-38.95 38.95,-38.95 60.7,0 115.92,-24.87 155.97,-64.92l1.89 -1.77c38.93,-39.79 63.03,-94.28 63.03,-154.2 0,-21.51 17.44,-38.95 38.95,-38.95zm5069.7 77.9l-5033.31 0c-8.66,65.54 -38.82,124.62 -83.1,169.83l-2.09 2.25c-45.44,45.44 -105.39,76.42 -172.09,85.2l0 719.41c66.69,8.78 126.64,39.76 172.09,85.2 45.4,45.56 76.4,105.49 85.19,172.08l5033.31 0c8.79,-66.61 39.77,-126.51 85.19,-171.94l0.14 -0.14c45.43,-45.42 105.34,-76.4 171.94,-85.19l0 -719.41c-66.69,-8.78 -126.64,-39.76 -172.09,-85.2 -45.43,-45.43 -76.41,-105.38 -85.19,-172.09z"/>
    <path class="fil2 str0" d="M1383.47 362.83l0 68.67 -161.3 0 0 614.95 -202.88 0 0 -614.95 -163.3 0 0 -68.67 527.48 0zm479.28 0l183.57 683.62 -192.31 0 -39.09 -148.61 -198.58 0 -42.06 148.61 -74.88 0 195.29 -683.62 168.07 0zm-227.62 466.33l161.97 0 -77.86 -302 -84.12 302zm592.92 217.29l0 -683.62 283.36 0c73.74,0 132.78,16.06 176.82,48.35 44.19,32.28 66.3,75.51 66.3,129.82 0,82.85 -47.33,137 -142.18,161.93 48.67,18.79 80.16,39.29 94.52,61.49 14.35,22.38 24.08,65.77 29.2,130 6.09,76.7 18.46,127.43 37.11,152.03l-207.67 0c-13.18,-31.6 -19.78,-71.23 -19.78,-118.55l-0.99 -40.49 -0.98 -50.9c0,-78.75 -30.68,-118.04 -91.88,-118.04l-32.82 0 0 327.98 -191 0zm191 -384.34l38.6 0c72.57,0 108.86,-39.29 108.86,-117.87 0,-78.57 -36.29,-117.87 -108.86,-117.87l-38.6 0 0 235.73zm1023.75 -299.28l-160.98 431.49 0 252.13 -191.01 0 0 -252.13 -177.81 -431.49 198.59 0 134.09 329.85 120.75 -329.85 76.37 0zm473.5 0l183.58 683.62 -192.31 0 -39.09 -148.61 -198.59 0 -42.05 148.61 -74.88 0 195.28 -683.62 168.07 0zm-227.62 466.33l161.97 0 -77.85 -302 -84.13 302zm1099.95 -466.33l-164.78 216.44 243.12 467.18 -213.26 0 -154.55 -299.11 -27.55 31.95 0 267.15 -191.01 0 0 -683.62 191.01 0 0 304.91 227.12 -304.91 89.89 0z"/>
   </g>
  </g>
 </g>
</svg>
